# xmcd
#
# Track frame offsets:
#	150
#	21981
#	44433
#	68648
#	91678
#	120350
#	136873
#	146153
#	158770
#	198537
#	213174
#	240451
#	289771
#
# Disc length: 4246 seconds
#
# Revision: 1
# Processed by: cddbd v1.5.2PL0 Copyright (c) Steve Scherf et al.
# Submitted via: audiograbber 1.83.01
#
DISCID=b210940d
DTITLE=Grateful Dead - 70-05-24 Newcastle-Under-Lyme, England
DYEAR=1900
DGENRE=
TTITLE0=Introduction
TTITLE1=Casey Jones
TTITLE2=China Cat Sunflower
TTITLE3=I Know You Rider
TTITLE4=Hard To Handle
TTITLE5=Me and My Uncle
TTITLE6=Cryptical Envelopment
TTITLE7=Drums
TTITLE8=The Other One
TTITLE9=Cryptical Envelopment
TTITLE10=Attics Of My Life
TTITLE11=Good Lovin'
TTITLE12=Cold Rain and Snow
EXTD=
EXTT0=
EXTT1=
EXTT2=
EXTT3=
EXTT4=
EXTT5=
EXTT6=
EXTT7=
EXTT8=
EXTT9=
EXTT10=
EXTT11=
EXTT12=
PLAYORDER=
